<svg xmlns="http://www.w3.org/2000/svg" width="100" height="100" viewBox="0 0 100 100">
  <g id="LOGO_PIONEROS_BOTTOM" data-name="LOGO PIONEROS BOTTOM" transform="translate(0)">
    <path id="Path_10123" data-name="Path 10123" d="M1814.926,334.025a31.659,31.659,0,0,0,1.968,11.022,89.3,89.3,0,0,1,4.855-14.711,72.817,72.817,0,0,0,2.654-7.315,35.845,35.845,0,0,0-8.363,2.65A31.76,31.76,0,0,0,1814.926,334.025Z" transform="translate(-1796.229 -284.026)" fill="#d65b17"/>
    <path id="Path_10124" data-name="Path 10124" d="M2092.027,315.775c1.612.638,3.123,1.3,4.532,1.973a31.5,31.5,0,0,0-2.407-7.161A17.386,17.386,0,0,1,2092.027,315.775Z" transform="translate(-2015.885 -274.06)" fill="#d65b17"/>
    <path id="Path_10125" data-name="Path 10125" d="M1827.333,498.181a1.261,1.261,0,0,0-2.016.1l-.878.96a2.961,2.961,0,0,0-.379.506,1.418,1.418,0,0,0-.171.491,3.006,3.006,0,0,0-.045.431c-.007.171-.022.35-.03.536s-.015.357-.022.528-.015.32-.022.439a1.385,1.385,0,0,1-.1.461,1.411,1.411,0,0,1-.268.394l-.841.908c-.208.231-.417.253-.625.06a.379.379,0,0,1-.156-.312.539.539,0,0,1,.156-.32l1.25-1.362-.692-.64-1.25,1.369a1.543,1.543,0,0,0-.483,1.012,1.362,1.362,0,0,0,.528.99,1.331,1.331,0,0,0,1.027.439,1.617,1.617,0,0,0,.967-.573l.841-.923c.119-.126.208-.238.29-.342a2.745,2.745,0,0,0,.186-.3,1.645,1.645,0,0,0,.119-.3,1.546,1.546,0,0,0,.074-.335c.015-.149.03-.313.045-.5s.015-.372.022-.551.007-.357.015-.513a2.486,2.486,0,0,1,.022-.379.878.878,0,0,1,.089-.3,1.342,1.342,0,0,1,.194-.253l.871-.952c.208-.223.409-.246.61-.06a.359.359,0,0,1,.149.313.519.519,0,0,1-.156.312l-1.064,1.161.67.618,1.072-1.168a1.667,1.667,0,0,0,.513-1A1.247,1.247,0,0,0,1827.333,498.181Z" transform="translate(-1800.85 -422.432)" fill="#d65b17"/>
    <path id="Path_10126" data-name="Path 10126" d="M1875.666,490.267h-7.642a31.7,31.7,0,0,0,9.617,5.628c-.246-.606-.495-1.209-.724-1.834Q1876.226,492.178,1875.666,490.267Z" transform="translate(-1838.332 -416.497)" fill="#d65b17"/>
    <path id="Path_10127" data-name="Path 10127" d="M1862.649,322.1l4.579-7.166h7.568a15.937,15.937,0,0,0,5.245-.774,14.234,14.234,0,0,0,4.379-2.56,12.813,12.813,0,0,0,1.393-1.383l3.767-5.3,1.7-2.661.533-.835q.418-.654.777-1.258c.069-.116.136-.23.2-.344q.421-.723.757-1.372,1.6-3.088,1.254-4.5c-.332-1.348-2.126-2.015-5.367-2.015h-20.379l-1.936,3.028-3.272,5.119,2.039-.086.689-.029-.573.9-2.138,3.346-6.886,10.778-2.6,4.066-1.95,3.051-2.585-.116-.716,1.12-.917,1.436-2.965,4.641-.609.953h15.2l5.208-8.15Zm14.2-22.138h5.853l-5.293,8.284h-5.91Z" transform="translate(-1819.822 -259.504)" fill="#d65b17"/>
    <path id="Path_10128" data-name="Path 10128" d="M1995.128,542.4c-.186-.975-.737-1.369-1.652-1.19a1.268,1.268,0,0,0-1.079,1.719l1.131,5.841c.193.967.737,1.369,1.652,1.19s1.272-.751,1.086-1.726Zm-.134,6.6c-.275.052-.439-.089-.506-.417l-1.139-5.841c-.06-.327.045-.513.312-.566s.447.082.513.409l1.131,5.834Q1995.407,548.922,1994.994,549Z" transform="translate(-1936.859 -456.996)" fill="#d65b17"/>
    <path id="Path_10129" data-name="Path 10129" d="M2049.393,526.236l-.781.432.886,1.585c.164.3.126.506-.1.64s-.447.052-.61-.246l-2.895-5.194c-.156-.29-.119-.506.119-.64a.354.354,0,0,1,.335-.045.649.649,0,0,1,.26.283l.751,1.354.781-.432-.751-1.354q-.725-1.3-1.853-.67a1.291,1.291,0,0,0-.5,2l2.879,5.186a1.273,1.273,0,0,0,1.949.6,1.207,1.207,0,0,0,.685-.8,1.715,1.715,0,0,0-.283-1.138Z" transform="translate(-1978.426 -441.659)" fill="#d65b17"/>
    <path id="Path_10130" data-name="Path 10130" d="M2010.447,349.714a67.278,67.278,0,0,0-6.519-2.924l-.725,1.122-1.436,2.222-.047.072-.05.07-3.809,5.3-.108.15-.123.138a16.2,16.2,0,0,1-1.806,1.763,17.94,17.94,0,0,1-5.5,3.16,19.794,19.794,0,0,1-6.44.964h-1.536a62.609,62.609,0,0,0,4.973,6.6,65.15,65.15,0,0,0,10.584,9.823A31.677,31.677,0,0,0,2010.6,352.8C2010.6,351.757,2010.545,350.728,2010.447,349.714Z" transform="translate(-1929.185 -302.989)" fill="#d65b17"/>
    <path id="Path_10131" data-name="Path 10131" d="M1935,430.729a65.917,65.917,0,0,1-5.454-7.277l-2.777,4.3-5.265,8.15-.711,1.1-.323.5h-1.689a55.258,55.258,0,0,0,2.535,6.708,31.8,31.8,0,0,0,23.942-3.82A68.08,68.08,0,0,1,1935,430.729Z" transform="translate(-1878.719 -363.703)" fill="#d65b17"/>
    <path id="Path_10132" data-name="Path 10132" d="M1930.213,544.568c-.171.662-.32,1.228-.446,1.7s-.231.871-.32,1.205-.171.647-.253.945c.007-.312.022-.64.03-.982s.015-.759.03-1.243.03-1.071.045-1.749.045-1.518.074-2.515l-1.287-.178-1.22,8.639.885.126.357-2.522c.082-.565.156-1.131.231-1.689s.141-1.131.208-1.7l-.082,6,.841.119c.208-.744.387-1.406.543-1.972s.3-1.079.417-1.525.238-.856.35-1.22.2-.722.305-1.071c-.1.565-.186,1.131-.275,1.689s-.164,1.116-.246,1.689l-.357,2.515.893.126,1.22-8.639-1.324-.186C1930.593,543.1,1930.385,543.913,1930.213,544.568Z" transform="translate(-1884.958 -457.461)" fill="#d65b17"/>
    <path id="Path_10133" data-name="Path 10133" d="M1915.372,224.912a37.387,37.387,0,0,0-6.715,16.562q2.678-.034,5.219.032l.267-.414c.961-4.15,3.688-7.752,7.991-10.487a31.476,31.476,0,0,1,10.024-3.994,31.856,31.856,0,0,0-16.786-1.7Z" transform="translate(-1870.653 -205.815)" fill="#d65b17"/>
    <path id="Path_10134" data-name="Path 10134" d="M1789.574,456.248a1.561,1.561,0,0,0-.58-.624,1.385,1.385,0,0,0-1.392.14l-5.179,2.924a1.394,1.394,0,1,0,1.362,2.426l5.187-2.917a1.347,1.347,0,0,0,.841-1.214A1.657,1.657,0,0,0,1789.574,456.248Zm-1.086,1.1-5.179,2.917c-.3.164-.513.127-.647-.119s-.06-.447.238-.61l5.179-2.924c.29-.156.506-.119.64.119S1788.778,457.186,1788.487,457.349Z" transform="translate(-1769.603 -388.932)" fill="#d65b17"/>
    <path id="Path_10135" data-name="Path 10135" d="M1767.426,407.227l.316-.067-.2-.952-.329.069-8.206,1.731.491,2.359.96-.2-.3-1.406Z" transform="translate(-1751.782 -349.844)" fill="#d65b17"/>
    <path id="Path_10136" data-name="Path 10136" d="M1979.538,250.944h6.555a16.035,16.035,0,0,1,4.37.508,31.87,31.87,0,0,0-8.392-6.99,31.4,31.4,0,0,0-12.835,4.294,18.983,18.983,0,0,0-2.835,2.188Z" transform="translate(-1916.479 -221.633)" fill="#d65b17"/>
    <path id="Path_10137" data-name="Path 10137" d="M1876.6,247.1c1.24-.135,2.525-.219,3.836-.275a41.935,41.935,0,0,1,5.513-15.68,31.612,31.612,0,0,0-9.412,4.745A28.979,28.979,0,0,1,1876.6,247.1Z" transform="translate(-1845.082 -211.107)" fill="#d65b17"/>
    <path id="Path_10138" data-name="Path 10138" d="M1839.546,328.285c-2.03,5.068-4.408,11.008-5.372,18.162q.314.559.65,1.1l3.183-4.927.7-1.077.311-.48.778-1.2,2,.089.61.027,3.482-5.39a110.51,110.51,0,0,1,.725-15.482q-2.07.106-4.009.352A60.438,60.438,0,0,1,1839.546,328.285Z" transform="translate(-1811.503 -280.98)" fill="#d65b17"/>
    <path id="Path_10139" data-name="Path 10139" d="M1907.941,318.616q-1.876-.023-3.826.006a107.486,107.486,0,0,0-.709,11.17l3.222-4.988-2.76.115,3.667-5.673Z" transform="translate(-1866.357 -280.442)" fill="#d65b17"/>
    <path id="Path_10140" data-name="Path 10140" d="M1825.886,274.786a41.4,41.4,0,0,1,7.811-2.072,27.476,27.476,0,0,0,.422-9.652A31.79,31.79,0,0,0,1825.886,274.786Z" transform="translate(-1804.916 -236.401)" fill="#d65b17"/>
    <path id="Path_10141" data-name="Path 10141" d="M2106.956,250.52l-4.7,3.639a1.009,1.009,0,0,0-.08.069.413.413,0,0,0,.488.665.936.936,0,0,0,.1-.072l4.7-3.639q.391-.313.134-.647C2107.433,250.319,2107.217,250.312,2106.956,250.52Z" transform="translate(-2023.809 -226.307)" fill="#d65b17"/>
    <path id="Path_10142" data-name="Path 10142" d="M1789.807,153.229c-24.031,0-43.8,18.8-45.826,42.668h0a21.959,21.959,0,0,0-.138,2.507h12.972a21.671,21.671,0,0,1,.249-2.945v-.007l.019,0a32.95,32.95,0,0,1,65.267-1.219c.06.385.287,1.9.4,3.2.03.35.051.685.058.975h12.889v-1.8C1834,172.4,1814.075,153.229,1789.807,153.229Zm-33.978,37.861-.183-.058-.4-.125-7.624-2.407.4-1.317a1.507,1.507,0,0,1,.689-.99,1.641,1.641,0,0,1,1.239.007l1.349.424a1.683,1.683,0,0,1,1.019.707,1.582,1.582,0,0,1,.015,1.2l-.125.394,3.267,1.035.4.125.238.075Zm5.85-11.928-.265-.2-.338-.261-.325-.251-5.912-4.566.579-.774,5.895,4.553.324.25.339.262.282.218Zm9.354-8.4a1.17,1.17,0,0,1-1.612-.08,2.247,2.247,0,0,1-.279-.342c-.017-.025-.035-.05-.052-.077l-.166-.263-2.994-4.745a1.282,1.282,0,0,1,.366-2,1.252,1.252,0,0,1,1.95.5l2.96,4.691.2.317.013.022a2.38,2.38,0,0,1,.2.4A1.211,1.211,0,0,1,1771.033,170.761Zm12.521-5.1-.463-1.076-.174-.405-.162-.379-.005-.012c-.232-.531-.443-1.011-.625-1.432s-.352-.819-.506-1.168-.293-.685-.425-1.019c.132.588.249,1.176.367,1.756s.227,1.176.344,1.764l.053.274.08.408.083.425.217,1.111-.814.164-.21-1.077-.083-.426-.079-.407-1.3-6.647,1.107-.223q.44,1.139.77,1.987c.22.558.411,1.057.579,1.481s.322.811.454,1.146.264.662.389.99c-.11-.5-.213-.99-.308-1.466s-.183-.952-.278-1.436l-.572-2.909.814-.164,1.293,6.617.08.411.082.421.216,1.107Zm14.852-7.419-1.334-.238-.484,2.753.895.164-.169.967-.894-.156-.333,1.9-.072.412-.074.423-.034.192,1.393.246-.169.96-2.339-.417.2-1.14.074-.422.072-.413,1.157-6.611,2.287.409Zm14.325,6.615-.894,1.518a1.974,1.974,0,0,1-.528.618.984.984,0,0,1-.6.171c-.249.67-.5,1.325-.762,1.957-.036.09-.074.18-.11.27-.051.128-.1.255-.155.382l-.17.418c-.114.28-.226.56-.342.841l-.909-.55.391-.876.181-.41.165-.373.063-.142c.264-.6.513-1.2.762-1.823l-.337-.208-1.068,1.8-.205.346-.225.381-.5.836-.828-.506.494-.836.225-.382.2-.346,3.5-5.922,1.151.7a1.709,1.709,0,0,1,.792.9A1.607,1.607,0,0,1,1812.731,164.853Zm6.634,14.026q-.07.054-.138.1a2.007,2.007,0,0,1-.364.2,1.249,1.249,0,0,1-.441.1,1.287,1.287,0,0,1-1.059-.607,1.271,1.271,0,0,1-.282-1.248,1.4,1.4,0,0,1,.232-.4,2.262,2.262,0,0,1,.291-.293c.027-.023.053-.046.082-.069l4.626-3.639a1.244,1.244,0,0,1,1.994.186,1.286,1.286,0,0,1-.308,2.017Zm12.36,9.963a1.65,1.65,0,0,1-.946.6l-1.5.454-.249-.878,1.488-.446a.541.541,0,0,0,.293-.193.359.359,0,0,0,.03-.342c-.073-.26-.257-.35-.543-.26l-1.224.365a1.341,1.341,0,0,0-.293.127.647.647,0,0,0-.22.208,2.255,2.255,0,0,0-.212.305c-.088.141-.176.283-.271.439s-.2.305-.3.461-.2.283-.293.4a2.577,2.577,0,0,1-.22.253c-.081.067-.169.134-.256.193s-.2.1-.315.156a4.2,4.2,0,0,1-.411.149l-1.18.357a2.007,2.007,0,0,1-.647.1,1.135,1.135,0,0,1-.448-.1l-.012,0a1.209,1.209,0,0,1-.584-.721c-.022-.057-.042-.116-.061-.179a2.312,2.312,0,0,1-.076-.348,1.174,1.174,0,0,1,.127-.776c.019-.03.04-.06.062-.088a1.277,1.277,0,0,1,.346-.308,2,2,0,0,1,.516-.221l1.752-.536.264.908-1.752.528a.5.5,0,0,0-.293.193.4.4,0,0,0-.029.35c.081.268.264.357.557.268l1.173-.35a1.435,1.435,0,0,0,.425-.2,1.363,1.363,0,0,0,.323-.35c.066-.089.139-.208.234-.357s.191-.29.286-.446.2-.3.3-.439a2.664,2.664,0,0,1,.257-.35,1.482,1.482,0,0,1,.389-.335,3,3,0,0,1,.579-.238l1.224-.372a1.247,1.247,0,0,1,1.76.945A1.3,1.3,0,0,1,1831.726,188.843Z" transform="translate(-1739.803 -149.244)" fill="#d65b17"/>
    <path id="Path_10143" data-name="Path 10143" d="M2064.73,201.665l-.312-.193-1.511,2.508.328.2a.486.486,0,0,0,.744-.208l.811-1.354a1.3,1.3,0,0,0,.223-.558C2065.028,201.919,2064.931,201.785,2064.73,201.665Z" transform="translate(-1992.775 -187.343)" fill="#d65b17"/>
    <path id="Path_10144" data-name="Path 10144" d="M1774.646,134.274a50,50,0,1,0,50,50A50,50,0,0,0,1774.646,134.274Zm0,97.936a47.936,47.936,0,1,1,47.936-47.936A47.936,47.936,0,0,1,1774.646,232.21Z" transform="translate(-1724.646 -134.274)" fill="#d65b17"/>
    <path id="Path_10145" data-name="Path 10145" d="M2086.538,486.516l2.783,2.582-.558.6-2.79-2.575-.662.714,6.406,5.923.663-.714-2.9-2.686.558-.6,2.9,2.686.662-.722-6.4-5.923Z" transform="translate(-2010.603 -412.984)" fill="#d65b17"/>
    <path id="Path_10146" data-name="Path 10146" d="M1857.865,209.753l-.2-.313-3.006-4.695c-.179-.275-.387-.342-.625-.186s-.26.365-.082.64l3.021,4.706.193.3c.009.013.017.024.026.037.133.193.283.274.445.235a.463.463,0,0,0,.147-.064.5.5,0,0,0,.142-.133.44.44,0,0,0-.044-.5C1857.875,209.771,1857.872,209.763,1857.865,209.753Z" transform="translate(-1827.059 -189.716)" fill="#d65b17"/>
    <path id="Path_10147" data-name="Path 10147" d="M2117.621,447.155l-.424.878.013.006,7.845,3.781.424-.878-7.824-3.771Z" transform="translate(-2036.042 -382.31)" fill="#d65b17"/>
    <path id="Path_10148" data-name="Path 10148" d="M2139.821,398.306l-1.235-.193a3.65,3.65,0,0,0-.439-.052,2.8,2.8,0,0,0-.357.007,1.374,1.374,0,0,0-.312.067,1.593,1.593,0,0,0-.32.127c-.127.059-.275.141-.439.231s-.32.186-.476.283-.3.193-.432.275a2.364,2.364,0,0,1-.327.186.681.681,0,0,1-.3.089,1.611,1.611,0,0,1-.32-.015l-1.272-.2c-.3-.052-.432-.208-.387-.484a.386.386,0,0,1,.171-.3.594.594,0,0,1,.35-.037l1.563.246.141-.9-1.57-.246a1.648,1.648,0,0,0-1.062.1c-.017.009-.038.015-.054.025a1.267,1.267,0,0,0-.513.952,1.426,1.426,0,0,0,.18,1.087,1.483,1.483,0,0,0,1.019.535l1.287.2a2.486,2.486,0,0,0,.633.045,1.555,1.555,0,0,0,.5-.134,2.809,2.809,0,0,0,.387-.2c.149-.082.3-.171.461-.268s.312-.186.461-.275.268-.164.372-.216a1.509,1.509,0,0,1,.439-.179,1.475,1.475,0,0,1,.476.008l1.228.2c.3.045.439.208.395.491a.385.385,0,0,1-.179.3.534.534,0,0,1-.35.045l-1.83-.29-.149.93,1.83.29a1.55,1.55,0,0,0,1.109-.156,1.679,1.679,0,0,0,.335-2.084A1.613,1.613,0,0,0,2139.821,398.306Z" transform="translate(-2047.891 -342.821)" fill="#d65b17"/>
    <path id="Path_10149" data-name="Path 10149" d="M1770.207,314.692l-1.406-.439a.64.64,0,0,0-.454-.015.572.572,0,0,0-.268.365l-.119.387,2.522.781.119-.394C1770.713,315.034,1770.579,314.8,1770.207,314.692Z" transform="translate(-1758.853 -276.896)" fill="#d65b17"/>
  </g>
</svg>
