<?xml version="1.0" encoding="utf-8"?>
<!-- Generator: Adobe Illustrator 25.4.1, SVG Export Plug-In . SVG Version: 6.00 Build 0)  -->
<svg version="1.1" id="Layer_1" xmlns="http://www.w3.org/2000/svg" xmlns:xlink="http://www.w3.org/1999/xlink" x="0px" y="0px"
	 viewBox="0 0 170 170" style="enable-background:new 0 0 170 170;" xml:space="preserve">
<style type="text/css">
	.st0{fill:#FFFFFF;}
	.st1{fill:#040304;}
	.st2{fill:#DC7123;}
	.st3{fill:#010001;}
	.st4{fill:#E07E31;}
	.st5{opacity:0.27;}
	.st6{fill:url(#XMLID_00000171713276341934711890000007365421527938682773_);}
</style>
<g id="XMLID_5924_">
	<ellipse id="XMLID_8037_" class="st0" cx="85" cy="85" rx="85" ry="85"/>
	<g id="XMLID_7858_">
		<path id="XMLID_8035_" class="st0" d="M147,77.3c0.2,2,0.3,4.1,0.3,6.2c0,34.3-27.9,62.3-62.3,62.3s-62.3-27.9-62.3-62.3
			c0-2.1,0.1-4.1,0.3-6.2c0.1-0.7,0.2-1.4,0.3-2.1c4.1-30.4,30.2-54,61.7-54s57.6,23.5,61.7,53.9C146.8,75.9,146.9,76.6,147,77.3z"
			/>
		<path id="XMLID_7859_" class="st1" d="M85,146.5c-34.7,0-63-28.3-63-63c0-2.1,0.1-4.2,0.3-6.3c0.1-0.5,0.1-1.1,0.2-1.6l0.1-0.5
			C26.8,44,53.6,20.5,85,20.5s58.3,23.5,62.4,54.6l0.1,0.5c0.1,0.5,0.1,1.1,0.2,1.6c0.2,2,0.3,4.2,0.3,6.3
			C148,118.3,119.8,146.5,85,146.5z M85,22c-30.7,0-56.9,22.9-61,53.3v0.5c-0.1,0.5-0.1,1.1-0.2,1.6c-0.2,2-0.3,4.1-0.3,6.1
			c0,33.9,27.6,61.5,61.5,61.5s61.5-27.6,61.5-61.5c0-2.1-0.1-4.1-0.3-6.1l0,0c0-0.5-0.1-1.1-0.2-1.6l-0.1-0.5
			C141.9,44.9,115.7,22,85,22z"/>
	</g>
	<g id="XMLID_7852_">
		<path id="XMLID_7853_" class="st2" d="M85,26.4c29.7,0,54.3,22.2,58.1,50.8c0,0,17.1,1.3,23.4,2c-3-42.3-38.4-75.9-81.5-75.9
			S6.5,36.8,3.5,79.2c-0.1,1.9,23.4-2,23.4-2C30.8,48.5,55.3,26.4,85,26.4z"/>
	</g>
	<g id="XMLID_7850_">
		<path id="XMLID_7851_" class="st3" d="M85,166.7c44,0,79.9-34.9,81.6-78.5l-23.5-11.1c0.1,0.7,0.2,1.3,0.2,2
			c0.2,1.9,0.3,3.9,0.3,5.8c0,32.3-26.3,58.6-58.6,58.6s-58.6-26.3-58.6-58.6c0-2,0.1-3.9,0.3-5.8c0.1-0.7,0.2-1.4,0.2-2L3.4,88.2
			C5.1,131.8,41,166.7,85,166.7z"/>
	</g>
	<g id="XMLID_7844_">
		<circle id="XMLID_7849_" class="st4" cx="85" cy="85" r="55.5"/>
	</g>
	<g id="XMLID_6818_">
		<path id="XMLID_6819_" class="st3" d="M33.6,64.2c4.2-1.6,8.8-2.8,13.7-3.6c0.7-3.4,1.9-9.9,0.7-16.9c1.4-1.2,2.8-2.4,4.2-3.4
			c1.3,5.8,1.4,12.3,0.1,19.6c2.2-0.2,4.4-0.4,6.7-0.5C60.8,48,64.4,39,68.7,31.9c2.3-0.7,4.7-1.3,7.1-1.7
			c-5.3,7.1-9.7,16.5-11.8,29c3.2,0,6.4,0,9.4,0.1c1.5-7.6,6.4-14.1,14.1-19.1c5-3.2,10.9-5.5,17.5-7c2.6,1,5.1,2.2,7.5,3.6
			c-8.7,1.1-16.4,3.6-22.5,7.5c-6.3,4-10.4,9.2-11.8,15.1c27,1.4,46.9,7.4,61,14.2c0.4,1.9,0.7,3.9,0.9,5.9
			c-13.8-7.1-34.1-13.8-62.5-15.2c-0.1,11.3,7.1,30.5,22,47.8c4.8,5.6,10.9,11.6,18.5,17.2c-1.4,1-2.8,2-4.3,2.9
			c-7.3-5.5-13.2-11.4-18-16.9c-16.4-19-23.3-39.2-23.2-51.2c-3.1-0.1-6.3-0.1-9.6,0c-1.8,15.2-3.5,47.7,8.9,74.8
			c-2.1-0.5-4.2-1.1-6.3-1.9c-0.4-1.1-0.9-2.1-1.3-3.2c-8.9-24.2-8.4-50.7-6.2-69.6c-2.4,0.1-4.7,0.3-7,0.6c-1,4.7-3.1,9.7-5.3,15.4
			c-3.6,8.9-7.7,19.3-9.4,31.8c-1.4-2.5-2.6-5.1-3.6-7.8c2.1-9.8,5.5-18.3,8.5-25.8c1.9-4.7,3.6-9,4.6-12.8
			c-5.4,1-10.2,2.6-14.6,4.6C32,68.3,32.7,66.2,33.6,64.2z"/>
	</g>
	<g id="XMLID_6815_">
		<path id="XMLID_6816_" class="st3" d="M87.9,100.7h5.9c4.2,0,8-0.6,11.3-1.7s6.5-3,9.6-5.5c1-0.8,2.1-1.8,3.2-3.1l0.2-0.2l0.2-0.3
			l6.7-9.3l0.1-0.1l0.1-0.1l2.5-3.9l1.4-2.2c0.2-0.3,0.4-0.7,0.6-1c4.8-7.7,6.5-12.7,5.5-16.8l0,0l0,0c-0.5-1.8-1.9-5.2-6.6-6.9
			c-2.3-0.8-5.2-1.3-8.8-1.3H113h-4.8H83.6h-3.3L78.5,51l-9.2,14.2l-6.4,9.9l4.8-0.2L51,100.8h-1.1l-3.5-0.2l-1.4,2.1l-0.5,0.8
			l-1.2,1.9l-8,12.4l-6.1,9.4h11.2h25.4h1.5h3.3l0.6-0.9l1.2-1.9l9.2-14.3L87.9,100.7z"/>
	</g>
	<g id="XMLID_6809_">
		<g id="XMLID_6810_">
			<g id="XMLID_6811_">
				<path id="XMLID_6812_" class="st0" d="M76.6,106.9l-4.3,0.2l8.1-12.5h13.4c3.6,0,6.7-0.5,9.3-1.4c2.6-0.9,5.2-2.4,7.7-4.5
					c0.8-0.6,1.6-1.4,2.5-2.4L120,77l4-6.1c0.5-0.8,0.9-1.5,1.4-2.2c0.6-1.1,1.2-2.1,1.7-3c1.9-3.6,2.6-6.2,2.2-7.9
					c-0.6-2.4-3.8-3.5-9.5-3.5h-0.1h-3.8H83.6l-9.2,14.2l4.8-0.2l-25,38.7l-4.6-0.2l-1.3,2l-1.6,2.5l-6.3,9.8h15.4h4.6h6.8
					L76.6,106.9z M97.4,68.4h10.4l-9.4,14.5H88L97.4,68.4z"/>
			</g>
		</g>
	</g>
	<g id="XMLID_6777_">
		<path id="XMLID_6806_" class="st3" d="M24.7,69.5L10.1,65l0.7-2.3c0.3-0.9,0.7-1.5,1.2-1.7c0.5-0.3,1.3-0.3,2.2,0l2.4,0.7
			c0.9,0.3,1.5,0.7,1.8,1.2s0.3,1.2,0,2.1l-0.2,0.7l6.9,2.2L24.7,69.5z M13.7,62.6c-0.3-0.1-0.6-0.1-0.8,0s-0.4,0.3-0.5,0.6
			l-0.2,0.7l4.4,1.4l0.2-0.7c0.2-0.6,0-1-0.7-1.2L13.7,62.6z"/>
		<path id="XMLID_6804_" class="st3" d="M35.1,48.7L23,39.5l1-1.4l12.1,9.2L35.1,48.7z"/>
		<path id="XMLID_6799_" class="st3" d="M42.6,24.3c-0.9-1.5-0.7-2.6,0.7-3.5s2.5-0.6,3.5,0.9l5.6,8.8c0.9,1.5,0.7,2.6-0.7,3.5
			s-2.5,0.6-3.4-0.9L42.6,24.3z M45.3,22.6c-0.3-0.5-0.7-0.6-1.1-0.3c-0.4,0.3-0.5,0.6-0.1,1.1l5.6,8.8c0.3,0.5,0.7,0.6,1.1,0.4
			c0.4-0.3,0.5-0.7,0.1-1.2L45.3,22.6z"/>
		<path id="XMLID_6797_" class="st3" d="M73.9,25c-0.5-1.2-1-2.3-1.4-3.3c-0.4-0.9-0.8-1.8-1.1-2.5c-0.3-0.8-0.6-1.4-0.9-2
			S70,16,69.7,15.4c0.2,1,0.4,2.1,0.7,3.1c0.2,1,0.4,2.1,0.6,3.1l0.8,3.9l-1.4,0.3l-3-15l2-0.4c0.5,1.3,1,2.5,1.4,3.5s0.7,1.8,1,2.6
			c0.3,0.7,0.6,1.4,0.8,2c0.2,0.6,0.5,1.2,0.7,1.7c-0.2-0.9-0.4-1.7-0.5-2.6c-0.2-0.8-0.3-1.7-0.5-2.5l-1-5.1l1.4-0.3l3,15L73.9,25z
			"/>
		<path id="XMLID_6795_" class="st3" d="M93.9,24.7l2.7-15l4.1,0.7l-0.3,1.7L98,11.7l-1,4.8l1.6,0.3l-0.3,1.7l-1.6-0.3l-0.9,5.1
			l2.5,0.4L98,25.4L93.9,24.7z"/>
		<path id="XMLID_6787_" class="st3" d="M117.8,33.5c0.5-1.1,1-2.1,1.4-3.1c0.5-1,0.9-2.1,1.4-3.2l-0.6-0.4l-3.5,5.9l-1.5-0.9
			l7.8-13.1l2,1.2c0.8,0.5,1.2,1,1.4,1.6c0.2,0.6,0,1.3-0.5,2.2l-1.6,2.7c-0.3,0.5-0.6,0.9-0.9,1.1s-0.7,0.3-1.1,0.3
			c-0.4,1.2-0.9,2.3-1.4,3.4s-0.9,2.2-1.4,3.3L117.8,33.5z M124,23.1c0.2-0.4,0.4-0.7,0.4-1c0-0.2-0.1-0.5-0.5-0.7l-0.5-0.3
			l-2.6,4.4l0.6,0.4c0.5,0.3,1,0.2,1.3-0.4L124,23.1z"/>
		<path id="XMLID_6781_" class="st3" d="M142.7,37.9c1.4-1.1,2.6-1,3.5,0.3c1,1.3,0.8,2.5-0.5,3.5l-8.2,6.4
			c-1.4,1.1-2.6,0.9-3.6-0.4c-1-1.3-0.8-2.4,0.6-3.5L142.7,37.9z M144.7,40.5c0.5-0.4,0.5-0.7,0.2-1.1c-0.3-0.4-0.7-0.4-1.1,0
			l-8.2,6.4c-0.5,0.4-0.6,0.7-0.3,1.1c0.3,0.4,0.7,0.4,1.2,0L144.7,40.5z"/>
		<path id="XMLID_6778_" class="st3" d="M149.2,67.5c0.3-0.1,0.6-0.2,0.8-0.4c0.2-0.1,0.4-0.3,0.6-0.6c0.1-0.2,0.2-0.4,0.4-0.6
			s0.3-0.5,0.5-0.8s0.4-0.5,0.5-0.8c0.2-0.3,0.3-0.5,0.5-0.6c0.2-0.2,0.4-0.4,0.7-0.6c0.3-0.1,0.6-0.3,1-0.4l2.2-0.7
			c1.6-0.5,2.7,0.1,3.1,1.7c0.2,0.8,0.2,1.4-0.1,1.9s-0.9,0.8-1.7,1.1l-2.7,0.8l-0.4-1.5l2.6-0.8c0.2-0.1,0.4-0.2,0.5-0.3
			c0.1-0.1,0.1-0.3,0.1-0.6c-0.1-0.5-0.5-0.6-1-0.5l-2.2,0.6c-0.2,0.1-0.4,0.1-0.5,0.2s-0.3,0.2-0.4,0.4c-0.1,0.1-0.2,0.3-0.4,0.5
			s-0.3,0.5-0.5,0.8s-0.4,0.5-0.5,0.8c-0.2,0.3-0.4,0.5-0.5,0.7s-0.3,0.3-0.4,0.4c-0.1,0.1-0.3,0.2-0.5,0.3
			c-0.2,0.1-0.4,0.2-0.6,0.3c-0.2,0.1-0.4,0.2-0.7,0.3l-2.1,0.6c-0.8,0.2-1.4,0.2-2,0c-0.5-0.2-0.9-0.8-1.1-1.6
			c-0.2-0.8-0.2-1.5,0.1-2s0.8-0.9,1.6-1.1l3.1-0.9l0.5,1.6l-3.1,0.9c-0.2,0.1-0.4,0.2-0.5,0.3c-0.1,0.2-0.1,0.4-0.1,0.6
			c0.1,0.5,0.5,0.6,1,0.5L149.2,67.5z"/>
	</g>
	<g id="XMLID_6751_">
		<path id="XMLID_6775_" class="st0" d="M9,99.5l14.9-3.1l0.4,1.7L11,100.8l0.5,2.5l-1.7,0.4L9,99.5z"/>
		<path id="XMLID_6772_" class="st0" d="M27.8,114.9c1.5-0.8,2.7-0.6,3.4,0.8c0.8,1.4,0.5,2.6-1.1,3.4l-9.1,5.1
			c-1.5,0.8-2.7,0.6-3.5-0.9c-0.8-1.4-0.4-2.5,1.1-3.4L27.8,114.9z M29.4,117.7c0.5-0.3,0.6-0.7,0.4-1.1s-0.6-0.5-1.1-0.2l-9.1,5.1
			c-0.5,0.3-0.7,0.7-0.4,1.1c0.2,0.4,0.6,0.5,1.1,0.2L29.4,117.7z"/>
		<path id="XMLID_6770_" class="st0" d="M36.3,139.3c0.2-0.3,0.4-0.5,0.5-0.7s0.1-0.5,0.2-0.8c0-0.2,0-0.5,0-0.8s0-0.6,0-0.9
			c0-0.3,0-0.6,0.1-0.9c0-0.3,0-0.6,0.1-0.8c0.1-0.3,0.2-0.6,0.3-0.9c0.1-0.3,0.4-0.5,0.7-0.9l1.5-1.7c1.1-1.2,2.3-1.3,3.5-0.2
			c0.6,0.6,0.9,1.1,0.9,1.7c0,0.5-0.3,1.1-0.9,1.8l-1.9,2l-1.2-1.1l1.9-2c0.2-0.2,0.3-0.4,0.3-0.5c0-0.2-0.1-0.4-0.3-0.5
			c-0.4-0.3-0.7-0.3-1.1,0.1l-1.5,1.7c-0.1,0.2-0.3,0.3-0.3,0.4c-0.1,0.1-0.1,0.3-0.2,0.5c0,0.2,0,0.4,0,0.7s0,0.6,0,0.9
			c0,0.3,0,0.6,0,1c0,0.3-0.1,0.6-0.1,0.9c0,0.2-0.1,0.4-0.1,0.6c-0.1,0.2-0.1,0.4-0.2,0.5c-0.1,0.2-0.2,0.3-0.3,0.5
			s-0.3,0.4-0.5,0.6l-1.5,1.6c-0.6,0.6-1.1,0.9-1.7,1c-0.6,0.1-1.2-0.2-1.8-0.8s-0.9-1.2-0.9-1.7c0-0.6,0.3-1.2,0.8-1.8l2.2-2.4
			l1.2,1.1l-2.2,2.4c-0.2,0.2-0.3,0.4-0.3,0.6c0,0.2,0.1,0.4,0.3,0.5c0.4,0.3,0.7,0.3,1.1-0.1L36.3,139.3z"/>
		<path id="XMLID_6768_" class="st0" d="M76.3,162.1l0.6-4.4c0.1-1,0.3-2,0.4-3c0.2-1,0.3-2,0.5-3c-0.2,0.6-0.4,1.2-0.5,1.9
			c-0.2,0.6-0.4,1.4-0.6,2.1c-0.2,0.8-0.5,1.7-0.7,2.7c-0.3,1-0.6,2.1-1,3.4l-1.5-0.2l0.1-10.5c-0.1,1-0.2,2-0.4,3
			c-0.1,1-0.3,2-0.4,3l-0.6,4.4l-1.5-0.2l2.1-15.1l2.3,0.3c-0.1,1.7-0.1,3.2-0.1,4.4s-0.1,2.2-0.1,3.1c0,0.8,0,1.6-0.1,2.2
			c0,0.6,0,1.2-0.1,1.7c0.1-0.5,0.3-1.1,0.4-1.7c0.2-0.6,0.4-1.3,0.6-2.1s0.5-1.8,0.8-3c0.3-1.1,0.7-2.6,1.1-4.2l2.3,0.3l-2.1,15.1
			L76.3,162.1z"/>
		<path id="XMLID_6761_" class="st0" d="M94.9,149.1c-0.3-1.7,0.3-2.7,1.9-3s2.6,0.4,2.9,2.1l2,10.2c0.3,1.7-0.3,2.7-1.9,3
			s-2.6-0.4-2.9-2.1L94.9,149.1z M98,148.5c-0.1-0.6-0.4-0.8-0.9-0.7s-0.7,0.4-0.5,1l2,10.2c0.1,0.6,0.4,0.8,0.9,0.7s0.7-0.4,0.5-1
			L98,148.5z"/>
		<path id="XMLID_6759_" class="st0" d="M120.8,147.4l1.4-0.8l1.5,2.7c0.4,0.8,0.6,1.4,0.5,2c-0.1,0.5-0.5,1-1.2,1.4
			c-1.4,0.8-2.6,0.5-3.4-1.1l-5-9.1c-0.9-1.5-0.6-2.7,0.9-3.5c1.3-0.7,2.4-0.3,3.2,1.2l1.3,2.4l-1.4,0.8l-1.3-2.4
			c-0.1-0.3-0.3-0.4-0.5-0.5s-0.4-0.1-0.6,0.1c-0.4,0.2-0.5,0.6-0.2,1.1l5.1,9.1c0.3,0.5,0.6,0.7,1.1,0.4c0.4-0.2,0.5-0.6,0.2-1.1
			L120.8,147.4z"/>
		<path id="XMLID_6756_" class="st0" d="M142.3,137.2l-5.1-4.7l-1,1.1l5.1,4.7l-1.2,1.2L129,129.2l1.2-1.2l4.9,4.5l1-1.1l-4.9-4.5
			l1.2-1.2l11.2,10.4L142.3,137.2z"/>
		<path id="XMLID_6754_" class="st0" d="M154.4,119.6l-13.7-6.6l0.7-1.5l13.7,6.6L154.4,119.6z"/>
		<path id="XMLID_6752_" class="st0" d="M157.1,96.1c-0.3-0.1-0.6-0.1-0.8,0c-0.2,0-0.5,0.1-0.8,0.3c-0.2,0.1-0.4,0.2-0.7,0.4
			c-0.3,0.2-0.5,0.3-0.8,0.5s-0.5,0.3-0.8,0.5s-0.5,0.3-0.7,0.4c-0.3,0.1-0.6,0.2-0.9,0.2c-0.3,0-0.7,0-1.1-0.1l-2.3-0.4
			c-1.7-0.3-2.4-1.2-2.1-2.8c0.1-0.8,0.4-1.4,0.9-1.7c0.5-0.3,1.1-0.4,2-0.2l2.7,0.4l-0.2,1.6l-2.7-0.4c-0.2,0-0.4,0-0.6,0.1
			c-0.2,0.1-0.3,0.3-0.3,0.5c-0.1,0.5,0.1,0.8,0.7,0.8l2.2,0.4c0.2,0,0.4,0,0.6,0c0.2,0,0.3-0.1,0.5-0.2c0.1-0.1,0.3-0.2,0.6-0.3
			c0.2-0.1,0.5-0.3,0.8-0.5s0.5-0.3,0.8-0.5s0.5-0.3,0.8-0.4c0.2-0.1,0.4-0.2,0.6-0.2c0.2-0.1,0.4-0.1,0.5-0.1c0.2,0,0.4,0,0.6,0
			c0.2,0,0.5,0,0.8,0.1l2.2,0.3c0.8,0.1,1.4,0.4,1.8,0.9c0.4,0.4,0.5,1.1,0.4,1.9s-0.5,1.4-0.9,1.7c-0.5,0.3-1.1,0.4-1.9,0.3
			l-3.2-0.5l0.3-1.6l3.2,0.5c0.2,0,0.4,0,0.6-0.1c0.2-0.1,0.3-0.3,0.3-0.5c0.1-0.5-0.2-0.8-0.7-0.9L157.1,96.1z"/>
	</g>
	<g id="XMLID_6749_">
		<path id="XMLID_6750_" class="st3" d="M166.6,88.2c0,0,0.1-4-0.1-7.8l-21.8,2.9"/>
	</g>
	<g id="XMLID_6747_">
		<path id="XMLID_6748_" class="st2" d="M142.8,74.9c0,0,0.8,4.8,0.8,7.5h22.9v-3.1"/>
	</g>
	<g id="XMLID_6745_">
		<path id="XMLID_6746_" class="st2" d="M27,76.2c0,0-0.6,2.6-0.6,6.1h-23c0,0,0-1.6,0.2-4.4"/>
	</g>
	<g id="XMLID_6743_">
		<path id="XMLID_6744_" class="st3" d="M3.5,89.5c0,0-0.1-4.7-0.1-7.1h13.9"/>
	</g>
	<g id="XMLID_6734_" class="st5">
		<g>
			
				<linearGradient id="XMLID_00000137112963964429845840000016109995165368199563_" gradientUnits="userSpaceOnUse" x1="85.5267" y1="167.7367" x2="85.5267" y2="38.0649">
				<stop  offset="0" style="stop-color:#050204"/>
				<stop  offset="1" style="stop-color:#050204;stop-opacity:0"/>
			</linearGradient>
			
				<path id="XMLID_00000165206992016592730950000006275784441737527954_" style="fill:url(#XMLID_00000137112963964429845840000016109995165368199563_);" d="
				M119.8,56.8H84.7l-6.1,9.4l4.9-0.2l-28.6,44.2l-4.6-0.2l-6.2,9.5h21.4l6-9.4l-4.3,0.2l11.5-17.7h14.8c3.3,0,6.2-0.4,8.6-1.2
				c2.3-0.8,4.7-2.2,7.1-4.1c0.6-0.5,1.4-1.2,2.1-2.1l6.6-9.2l4-6.1c0.5-0.7,0.9-1.5,1.4-2.2c0.6-1,1.2-2,1.6-2.9
				c2.3-4.3,2.1-5.9,2-6.3C126.9,57.9,125.2,56.8,119.8,56.8z M99.6,85.7H83.3L96,66.2h16.2L99.6,85.7z"/>
		</g>
	</g>
</g>
</svg>
